<mxfile host="Electron" agent="Mozilla/5.0 (X11; Linux x86_64) AppleWebKit/537.36 (KHTML, like Gecko) draw.io/28.1.2 Chrome/138.0.7204.243 Electron/37.4.0 Safari/537.36" version="28.1.2">
  <diagram name="Page-1" id="fy2u_X_LGDbuJ0HFzcz0">
    <mxGraphModel dx="1188" dy="703" grid="1" gridSize="10" guides="1" tooltips="1" connect="1" arrows="1" fold="1" page="1" pageScale="1" pageWidth="850" pageHeight="1100" math="0" shadow="0">
      <root>
        <mxCell id="0" />
        <mxCell id="1" parent="0" />
        <mxCell id="3lD3xz3eLsphHlcwQITa-28" style="edgeStyle=orthogonalEdgeStyle;rounded=0;orthogonalLoop=1;jettySize=auto;html=1;" edge="1" parent="1" source="3lD3xz3eLsphHlcwQITa-1" target="3lD3xz3eLsphHlcwQITa-6">
          <mxGeometry relative="1" as="geometry" />
        </mxCell>
        <mxCell id="3lD3xz3eLsphHlcwQITa-29" style="edgeStyle=orthogonalEdgeStyle;rounded=0;orthogonalLoop=1;jettySize=auto;html=1;" edge="1" parent="1" source="3lD3xz3eLsphHlcwQITa-1" target="3lD3xz3eLsphHlcwQITa-8">
          <mxGeometry relative="1" as="geometry" />
        </mxCell>
        <mxCell id="3lD3xz3eLsphHlcwQITa-33" style="edgeStyle=orthogonalEdgeStyle;rounded=0;orthogonalLoop=1;jettySize=auto;html=1;" edge="1" parent="1" source="3lD3xz3eLsphHlcwQITa-1" target="3lD3xz3eLsphHlcwQITa-9">
          <mxGeometry relative="1" as="geometry">
            <Array as="points">
              <mxPoint x="790" y="1010" />
            </Array>
          </mxGeometry>
        </mxCell>
        <mxCell id="3lD3xz3eLsphHlcwQITa-1" value="Médecin" style="shape=umlActor;verticalLabelPosition=bottom;verticalAlign=top;html=1;outlineConnect=0;" vertex="1" parent="1">
          <mxGeometry x="600" y="960" width="40" height="80" as="geometry" />
        </mxCell>
        <mxCell id="3lD3xz3eLsphHlcwQITa-21" style="edgeStyle=orthogonalEdgeStyle;rounded=0;orthogonalLoop=1;jettySize=auto;html=1;" edge="1" parent="1" source="3lD3xz3eLsphHlcwQITa-2" target="3lD3xz3eLsphHlcwQITa-10">
          <mxGeometry relative="1" as="geometry" />
        </mxCell>
        <mxCell id="3lD3xz3eLsphHlcwQITa-57" style="edgeStyle=orthogonalEdgeStyle;rounded=0;orthogonalLoop=1;jettySize=auto;html=1;" edge="1" parent="1" source="3lD3xz3eLsphHlcwQITa-2" target="3lD3xz3eLsphHlcwQITa-8">
          <mxGeometry relative="1" as="geometry">
            <Array as="points">
              <mxPoint x="40" y="720" />
              <mxPoint x="40" y="1240" />
              <mxPoint x="630" y="1240" />
            </Array>
          </mxGeometry>
        </mxCell>
        <mxCell id="3lD3xz3eLsphHlcwQITa-2" value="Infirimère&lt;div&gt;&lt;br&gt;&lt;/div&gt;" style="shape=umlActor;verticalLabelPosition=bottom;verticalAlign=top;html=1;outlineConnect=0;" vertex="1" parent="1">
          <mxGeometry x="120" y="680" width="40" height="80" as="geometry" />
        </mxCell>
        <mxCell id="3lD3xz3eLsphHlcwQITa-17" style="edgeStyle=orthogonalEdgeStyle;rounded=0;orthogonalLoop=1;jettySize=auto;html=1;" edge="1" parent="1" source="3lD3xz3eLsphHlcwQITa-3" target="3lD3xz3eLsphHlcwQITa-14">
          <mxGeometry relative="1" as="geometry">
            <Array as="points">
              <mxPoint x="190" y="990" />
              <mxPoint x="190" y="990" />
            </Array>
          </mxGeometry>
        </mxCell>
        <mxCell id="3lD3xz3eLsphHlcwQITa-20" style="edgeStyle=orthogonalEdgeStyle;rounded=0;orthogonalLoop=1;jettySize=auto;html=1;" edge="1" parent="1" source="3lD3xz3eLsphHlcwQITa-3" target="3lD3xz3eLsphHlcwQITa-15">
          <mxGeometry relative="1" as="geometry">
            <Array as="points">
              <mxPoint x="140" y="920" />
              <mxPoint x="140" y="920" />
            </Array>
          </mxGeometry>
        </mxCell>
        <mxCell id="3lD3xz3eLsphHlcwQITa-3" value="&lt;div&gt;Patient&lt;/div&gt;" style="shape=umlActor;verticalLabelPosition=bottom;verticalAlign=top;html=1;outlineConnect=0;" vertex="1" parent="1">
          <mxGeometry x="120" y="960" width="40" height="80" as="geometry" />
        </mxCell>
        <mxCell id="3lD3xz3eLsphHlcwQITa-34" style="edgeStyle=orthogonalEdgeStyle;rounded=0;orthogonalLoop=1;jettySize=auto;html=1;dashed=1;" edge="1" parent="1" source="3lD3xz3eLsphHlcwQITa-58" target="3lD3xz3eLsphHlcwQITa-14">
          <mxGeometry relative="1" as="geometry">
            <mxPoint x="380" y="940" as="sourcePoint" />
            <Array as="points">
              <mxPoint x="280" y="945" />
            </Array>
          </mxGeometry>
        </mxCell>
        <mxCell id="3lD3xz3eLsphHlcwQITa-35" value="include" style="edgeLabel;html=1;align=center;verticalAlign=middle;resizable=0;points=[];" vertex="1" connectable="0" parent="3lD3xz3eLsphHlcwQITa-34">
          <mxGeometry x="-0.3216" y="2" relative="1" as="geometry">
            <mxPoint x="-1" y="-2" as="offset" />
          </mxGeometry>
        </mxCell>
        <mxCell id="3lD3xz3eLsphHlcwQITa-6" value="gérer les dossiers médicaux" style="ellipse;whiteSpace=wrap;html=1;" vertex="1" parent="1">
          <mxGeometry x="440" y="960" width="120" height="80" as="geometry" />
        </mxCell>
        <mxCell id="3lD3xz3eLsphHlcwQITa-36" style="edgeStyle=orthogonalEdgeStyle;rounded=0;orthogonalLoop=1;jettySize=auto;html=1;dashed=1;" edge="1" parent="1" source="3lD3xz3eLsphHlcwQITa-7" target="3lD3xz3eLsphHlcwQITa-16">
          <mxGeometry relative="1" as="geometry" />
        </mxCell>
        <mxCell id="3lD3xz3eLsphHlcwQITa-37" value="include" style="edgeLabel;html=1;align=center;verticalAlign=middle;resizable=0;points=[];" vertex="1" connectable="0" parent="3lD3xz3eLsphHlcwQITa-36">
          <mxGeometry x="0.1879" y="3" relative="1" as="geometry">
            <mxPoint x="6" y="-3" as="offset" />
          </mxGeometry>
        </mxCell>
        <mxCell id="3lD3xz3eLsphHlcwQITa-38" style="edgeStyle=orthogonalEdgeStyle;rounded=0;orthogonalLoop=1;jettySize=auto;html=1;dashed=1;" edge="1" parent="1" source="3lD3xz3eLsphHlcwQITa-7" target="3lD3xz3eLsphHlcwQITa-8">
          <mxGeometry relative="1" as="geometry" />
        </mxCell>
        <mxCell id="3lD3xz3eLsphHlcwQITa-39" value="extend" style="edgeLabel;html=1;align=center;verticalAlign=middle;resizable=0;points=[];" vertex="1" connectable="0" parent="3lD3xz3eLsphHlcwQITa-38">
          <mxGeometry x="-0.2109" relative="1" as="geometry">
            <mxPoint as="offset" />
          </mxGeometry>
        </mxCell>
        <mxCell id="3lD3xz3eLsphHlcwQITa-7" value="Prescrire un traitement" style="ellipse;whiteSpace=wrap;html=1;" vertex="1" parent="1">
          <mxGeometry x="390" y="1120" width="120" height="80" as="geometry" />
        </mxCell>
        <mxCell id="3lD3xz3eLsphHlcwQITa-67" style="edgeStyle=orthogonalEdgeStyle;rounded=0;orthogonalLoop=1;jettySize=auto;html=1;dashed=1;" edge="1" parent="1" source="3lD3xz3eLsphHlcwQITa-8" target="3lD3xz3eLsphHlcwQITa-14">
          <mxGeometry relative="1" as="geometry">
            <Array as="points">
              <mxPoint x="610" y="1220" />
              <mxPoint x="200" y="1220" />
              <mxPoint x="200" y="1010" />
            </Array>
          </mxGeometry>
        </mxCell>
        <mxCell id="3lD3xz3eLsphHlcwQITa-68" value="extend" style="edgeLabel;html=1;align=center;verticalAlign=middle;resizable=0;points=[];" vertex="1" connectable="0" parent="3lD3xz3eLsphHlcwQITa-67">
          <mxGeometry x="0.1486" y="2" relative="1" as="geometry">
            <mxPoint x="30" y="-2" as="offset" />
          </mxGeometry>
        </mxCell>
        <mxCell id="3lD3xz3eLsphHlcwQITa-8" value="Consulter les résultats d&#39;examens" style="ellipse;whiteSpace=wrap;html=1;" vertex="1" parent="1">
          <mxGeometry x="560" y="1120" width="120" height="80" as="geometry" />
        </mxCell>
        <mxCell id="3lD3xz3eLsphHlcwQITa-40" style="edgeStyle=orthogonalEdgeStyle;rounded=0;orthogonalLoop=1;jettySize=auto;html=1;dashed=1;" edge="1" parent="1" source="3lD3xz3eLsphHlcwQITa-9" target="3lD3xz3eLsphHlcwQITa-8">
          <mxGeometry relative="1" as="geometry" />
        </mxCell>
        <mxCell id="3lD3xz3eLsphHlcwQITa-41" value="include" style="edgeLabel;html=1;align=center;verticalAlign=middle;resizable=0;points=[];" vertex="1" connectable="0" parent="3lD3xz3eLsphHlcwQITa-40">
          <mxGeometry x="-0.2333" y="2" relative="1" as="geometry">
            <mxPoint x="-1" y="-2" as="offset" />
          </mxGeometry>
        </mxCell>
        <mxCell id="3lD3xz3eLsphHlcwQITa-9" value="Enregistrer les résultats" style="ellipse;whiteSpace=wrap;html=1;" vertex="1" parent="1">
          <mxGeometry x="730" y="1120" width="120" height="80" as="geometry" />
        </mxCell>
        <mxCell id="3lD3xz3eLsphHlcwQITa-10" value="Gérer les rendez vous" style="ellipse;whiteSpace=wrap;html=1;" vertex="1" parent="1">
          <mxGeometry x="240" y="680" width="120" height="80" as="geometry" />
        </mxCell>
        <mxCell id="3lD3xz3eLsphHlcwQITa-24" style="edgeStyle=orthogonalEdgeStyle;rounded=0;orthogonalLoop=1;jettySize=auto;html=1;dashed=1;" edge="1" parent="1" source="3lD3xz3eLsphHlcwQITa-11" target="3lD3xz3eLsphHlcwQITa-10">
          <mxGeometry relative="1" as="geometry">
            <Array as="points">
              <mxPoint x="380" y="655" />
              <mxPoint x="380" y="700" />
            </Array>
          </mxGeometry>
        </mxCell>
        <mxCell id="3lD3xz3eLsphHlcwQITa-27" value="extend" style="edgeLabel;html=1;align=center;verticalAlign=middle;resizable=0;points=[];" vertex="1" connectable="0" parent="3lD3xz3eLsphHlcwQITa-24">
          <mxGeometry x="-0.3016" y="-2" relative="1" as="geometry">
            <mxPoint x="2" y="13" as="offset" />
          </mxGeometry>
        </mxCell>
        <mxCell id="3lD3xz3eLsphHlcwQITa-11" value="Valider" style="ellipse;whiteSpace=wrap;html=1;" vertex="1" parent="1">
          <mxGeometry x="400" y="630" width="60" height="50" as="geometry" />
        </mxCell>
        <mxCell id="3lD3xz3eLsphHlcwQITa-23" style="edgeStyle=orthogonalEdgeStyle;rounded=0;orthogonalLoop=1;jettySize=auto;html=1;dashed=1;" edge="1" parent="1" source="3lD3xz3eLsphHlcwQITa-12" target="3lD3xz3eLsphHlcwQITa-10">
          <mxGeometry relative="1" as="geometry" />
        </mxCell>
        <mxCell id="3lD3xz3eLsphHlcwQITa-26" value="extend" style="edgeLabel;html=1;align=center;verticalAlign=middle;resizable=0;points=[];" vertex="1" connectable="0" parent="3lD3xz3eLsphHlcwQITa-23">
          <mxGeometry x="-0.3643" relative="1" as="geometry">
            <mxPoint x="-14" as="offset" />
          </mxGeometry>
        </mxCell>
        <mxCell id="3lD3xz3eLsphHlcwQITa-12" value="Refuser" style="ellipse;whiteSpace=wrap;html=1;" vertex="1" parent="1">
          <mxGeometry x="440" y="695" width="60" height="50" as="geometry" />
        </mxCell>
        <mxCell id="3lD3xz3eLsphHlcwQITa-22" style="edgeStyle=orthogonalEdgeStyle;rounded=0;orthogonalLoop=1;jettySize=auto;html=1;dashed=1;" edge="1" parent="1" source="3lD3xz3eLsphHlcwQITa-13" target="3lD3xz3eLsphHlcwQITa-10">
          <mxGeometry relative="1" as="geometry">
            <Array as="points">
              <mxPoint x="380" y="785" />
              <mxPoint x="380" y="740" />
            </Array>
          </mxGeometry>
        </mxCell>
        <mxCell id="3lD3xz3eLsphHlcwQITa-25" value="extend" style="edgeLabel;html=1;align=center;verticalAlign=middle;resizable=0;points=[];" vertex="1" connectable="0" parent="3lD3xz3eLsphHlcwQITa-22">
          <mxGeometry x="-0.1445" y="-2" relative="1" as="geometry">
            <mxPoint x="-2" y="-5" as="offset" />
          </mxGeometry>
        </mxCell>
        <mxCell id="3lD3xz3eLsphHlcwQITa-13" value="mettre à jour" style="ellipse;whiteSpace=wrap;html=1;" vertex="1" parent="1">
          <mxGeometry x="400" y="760" width="60" height="50" as="geometry" />
        </mxCell>
        <mxCell id="3lD3xz3eLsphHlcwQITa-14" value="Consulter le dossier médical" style="ellipse;whiteSpace=wrap;html=1;" vertex="1" parent="1">
          <mxGeometry x="220" y="960" width="120" height="80" as="geometry" />
        </mxCell>
        <mxCell id="3lD3xz3eLsphHlcwQITa-43" style="edgeStyle=orthogonalEdgeStyle;rounded=0;orthogonalLoop=1;jettySize=auto;html=1;dashed=1;" edge="1" parent="1" source="3lD3xz3eLsphHlcwQITa-15" target="3lD3xz3eLsphHlcwQITa-10">
          <mxGeometry relative="1" as="geometry" />
        </mxCell>
        <mxCell id="3lD3xz3eLsphHlcwQITa-44" value="include" style="edgeLabel;html=1;align=center;verticalAlign=middle;resizable=0;points=[];" vertex="1" connectable="0" parent="3lD3xz3eLsphHlcwQITa-43">
          <mxGeometry x="-0.2257" y="-2" relative="1" as="geometry">
            <mxPoint y="-2" as="offset" />
          </mxGeometry>
        </mxCell>
        <mxCell id="3lD3xz3eLsphHlcwQITa-15" value="Effectuer une demande de rendez vous" style="ellipse;whiteSpace=wrap;html=1;" vertex="1" parent="1">
          <mxGeometry x="80" y="800" width="120" height="80" as="geometry" />
        </mxCell>
        <mxCell id="3lD3xz3eLsphHlcwQITa-54" style="edgeStyle=orthogonalEdgeStyle;rounded=0;orthogonalLoop=1;jettySize=auto;html=1;dashed=1;" edge="1" parent="1" source="3lD3xz3eLsphHlcwQITa-16" target="3lD3xz3eLsphHlcwQITa-14">
          <mxGeometry relative="1" as="geometry" />
        </mxCell>
        <mxCell id="3lD3xz3eLsphHlcwQITa-55" value="extend" style="edgeLabel;html=1;align=center;verticalAlign=middle;resizable=0;points=[];" vertex="1" connectable="0" parent="3lD3xz3eLsphHlcwQITa-54">
          <mxGeometry x="-0.2095" y="2" relative="1" as="geometry">
            <mxPoint x="2" y="-8" as="offset" />
          </mxGeometry>
        </mxCell>
        <mxCell id="3lD3xz3eLsphHlcwQITa-16" value="Consulter les prescriptions faites pas le médecin" style="ellipse;whiteSpace=wrap;html=1;" vertex="1" parent="1">
          <mxGeometry x="220" y="1120" width="120" height="80" as="geometry" />
        </mxCell>
        <mxCell id="3lD3xz3eLsphHlcwQITa-59" style="edgeStyle=orthogonalEdgeStyle;rounded=0;orthogonalLoop=1;jettySize=auto;html=1;dashed=1;" edge="1" parent="1" source="3lD3xz3eLsphHlcwQITa-58" target="3lD3xz3eLsphHlcwQITa-6">
          <mxGeometry relative="1" as="geometry">
            <Array as="points">
              <mxPoint x="500" y="945" />
            </Array>
          </mxGeometry>
        </mxCell>
        <mxCell id="3lD3xz3eLsphHlcwQITa-60" value="extend" style="edgeLabel;html=1;align=center;verticalAlign=middle;resizable=0;points=[];" vertex="1" connectable="0" parent="3lD3xz3eLsphHlcwQITa-59">
          <mxGeometry x="0.1552" y="1" relative="1" as="geometry">
            <mxPoint x="-19" y="1" as="offset" />
          </mxGeometry>
        </mxCell>
        <mxCell id="3lD3xz3eLsphHlcwQITa-58" value="Créer" style="ellipse;whiteSpace=wrap;html=1;" vertex="1" parent="1">
          <mxGeometry x="360" y="920" width="60" height="50" as="geometry" />
        </mxCell>
        <mxCell id="3lD3xz3eLsphHlcwQITa-61" style="edgeStyle=orthogonalEdgeStyle;rounded=0;orthogonalLoop=1;jettySize=auto;html=1;dashed=1;" edge="1" source="3lD3xz3eLsphHlcwQITa-63" parent="1" target="3lD3xz3eLsphHlcwQITa-6">
          <mxGeometry relative="1" as="geometry">
            <mxPoint x="500" y="1039.0005318873307" as="targetPoint" />
            <Array as="points">
              <mxPoint x="500" y="1060" />
            </Array>
          </mxGeometry>
        </mxCell>
        <mxCell id="3lD3xz3eLsphHlcwQITa-62" value="extend" style="edgeLabel;html=1;align=center;verticalAlign=middle;resizable=0;points=[];" vertex="1" connectable="0" parent="3lD3xz3eLsphHlcwQITa-61">
          <mxGeometry x="0.1552" y="1" relative="1" as="geometry">
            <mxPoint x="-22" y="1" as="offset" />
          </mxGeometry>
        </mxCell>
        <mxCell id="3lD3xz3eLsphHlcwQITa-63" value="Modifier" style="ellipse;whiteSpace=wrap;html=1;" vertex="1" parent="1">
          <mxGeometry x="360" y="1030" width="60" height="50" as="geometry" />
        </mxCell>
      </root>
    </mxGraphModel>
  </diagram>
</mxfile>
